<svg width="64" height="64" xmlns="http://www.w3.org/2000/svg">

 <g>
  <title>background</title>
  <rect fill="none" id="canvas_background" height="5.614279" width="5.614279" y="-1" x="-1"/>
 </g>
 <g>
  <title>Layer 1</title>
  <g id="svg_1">
   <path id="svg_2" d="m31,2c-15.99,0 -29,13.01 -29,29c0,12.648 8.143,23.424 19.459,27.38c0.16,0.113 0.349,0.182 0.551,0.187c2.832,0.926 5.852,1.433 8.99,1.433c15.99,0 29,-13.01 29,-29s-13.01,-29 -29,-29zm0,56c-2.53,0 -4.977,-0.357 -7.302,-1.011c0.29,-0.85 0.298,-1.724 0.298,-1.741l0.003,-0.536c0.005,-0.451 0.011,-1.063 0.001,-2.718c-0.002,-0.302 -0.14,-0.586 -0.375,-0.774c-0.234,-0.188 -0.541,-0.259 -0.837,-0.197c-6.716,1.465 -8.171,-3.382 -8.227,-3.583c-0.01,-0.036 -0.021,-0.071 -0.035,-0.105c-0.959,-2.438 -2.225,-3.677 -2.98,-4.239c1.63,0.574 2.541,2.162 2.561,2.196c2.645,4.529 7.013,4.646 9.302,3.622c0.314,-0.141 0.534,-0.433 0.582,-0.773c0.202,-1.43 1.77,-3.321 2.564,-4.018c0.298,-0.261 0.413,-0.672 0.295,-1.05s-0.447,-0.651 -0.841,-0.695c-5.867,-0.668 -11.865,-2.716 -11.865,-12.844c0,-2.639 0.881,-4.938 2.618,-6.836c0.262,-0.285 0.335,-0.695 0.188,-1.054c-0.266,-0.65 -1.003,-2.929 0.068,-6.094c0.85,0.027 2.922,0.392 6.416,2.761c0.244,0.165 0.548,0.215 0.829,0.136c2.091,-0.582 4.424,-0.895 6.737,-0.905c2.319,0.011 4.652,0.323 6.747,0.905c0.283,0.079 0.586,0.029 0.828,-0.136c3.513,-2.379 5.586,-2.736 6.411,-2.766c1.072,3.164 0.338,5.449 0.073,6.101c-0.145,0.357 -0.071,0.767 0.189,1.051c1.734,1.896 2.614,4.196 2.614,6.837c0,10.135 -6.012,12.168 -11.894,12.819c-0.396,0.044 -0.727,0.318 -0.845,0.698s0.001,0.793 0.302,1.053c0.789,0.678 2.575,3.609 2.575,5.896l-0.002,5.255c0,0.016 0.007,0.889 0.291,1.737c-2.32,0.652 -4.763,1.008 -7.289,1.008zm9.198,-1.615c-0.108,-0.322 -0.2,-0.804 -0.2,-1.13l0.002,-5.255c0,-2.092 -1.023,-4.375 -2.03,-5.905c5.55,-0.939 11.895,-3.819 11.895,-14.562c0,-2.948 -0.922,-5.546 -2.741,-7.731c0.401,-1.315 0.892,-4.084 -0.484,-7.56c-0.11,-0.278 -0.34,-0.493 -0.625,-0.584c-0.28,-0.089 -2.847,-0.757 -8.177,2.741c-2.166,-0.56 -4.46,-0.848 -6.836,-0.858c-2.37,0.011 -4.664,0.299 -6.826,0.858c-5.329,-3.5 -7.9,-2.831 -8.181,-2.741c-0.285,0.091 -0.515,0.306 -0.625,0.584c-1.377,3.479 -0.885,6.246 -0.481,7.561c-1.821,2.187 -2.744,4.784 -2.744,7.73c0,10.647 6.229,13.58 11.733,14.557c-0.693,0.876 -1.418,2.009 -1.737,3.158c-1.42,0.396 -4.336,0.409 -6.294,-2.943c-0.071,-0.129 -1.781,-3.167 -5.153,-3.403c-0.538,0.003 -1.896,0.09 -2.224,1.13c-0.365,1.154 0.911,2.026 1.456,2.398c0.036,0.024 0.087,0.054 0.126,0.073c0.062,0.031 1.518,0.796 2.603,3.534c0.23,0.712 2.217,6.099 9.352,5.153c0.002,0.789 -0.002,1.186 -0.006,1.502l-0.003,0.556c0,0.328 -0.095,0.812 -0.207,1.132c-10.368,-3.774 -17.791,-13.726 -17.791,-25.38c0,-14.888 12.112,-27 27,-27s27,12.112 27,27c0,11.659 -7.43,21.615 -17.802,25.385z"/>
  </g>
 </g>
</svg>