<svg xmlns="http://www.w3.org/2000/svg" xmlns:xlink="http://www.w3.org/1999/xlink" version="1.1" style="enable-background:new 0 0 512 512;" xml:space="preserve" width="512" height="512"><rect id="backgroundrect" width="100%" height="100%" x="0" y="0" fill="none" stroke="none"/>





























<g class="currentLayer" style=""><title>Layer 1</title><g id="svg_1" class="">
	<g id="svg_2">
		<path d="M373.122,123.525c-26.178-38.692-69.689-61.931-116.395-62.165c-37.789-0.203-73.418,14.432-100.286,41.167    c-27.104,26.97-42.031,62.943-42.031,101.293c0,35.378,12.959,69.272,36.501,95.486l21.608,29.311    c1.471,1.994,3.741,3.049,6.042,3.049c1.546,0,3.106-0.477,4.446-1.464c3.334-2.458,4.044-7.154,1.585-10.488l-21.825-29.604    c-0.146-0.199-0.304-0.392-0.47-0.575c-21.207-23.491-32.887-53.931-32.887-85.714c0-34.33,13.357-66.526,37.611-90.66    c23.866-23.749,55.443-36.801,88.988-36.801c0.213,0,0.431,0,0.644,0.001c41.749,0.209,80.645,20.983,104.045,55.57    c2.322,3.431,6.983,4.331,10.415,2.009C374.544,131.619,375.443,126.956,373.122,123.525z" id="svg_3"/>
	</g>
</g><g id="svg_4" class="">
	<g id="svg_5">
		<g id="svg_6">
			<path d="M204.37,392.001c0.76,0,1.5,0.001,1.671,0.001C205.866,392.002,205.128,392.001,204.37,392.001z" id="svg_7"/>
			<path d="M388.328,152.853c-1.467-3.875-5.798-5.825-9.669-4.36c-3.874,1.466-5.826,5.795-4.36,9.669     c5.502,14.538,8.291,29.902,8.291,45.668c0,31.843-11.727,62.327-33.019,85.835c-0.171,0.188-0.331,0.384-0.481,0.589     l-5.032,6.837c-5.971,8.112-11.918,16.193-17.915,24.329c-0.173,0.235-0.333,0.48-0.478,0.734     c-11.519,20.191-19.766,40.22-25.047,54.846h-89.256c-3.444-9.555-7.275-19.035-11.468-28.242     c-1.717-3.769-6.164-5.435-9.934-3.717c-3.77,1.717-5.434,6.165-3.717,9.934c3.691,8.105,6.751,15.673,9.153,22.025H195     c-4.143,0-7.5,3.358-7.5,7.5V407H184c-4.143,0-7.5,3.358-7.5,7.5v30c0,4.142,3.357,7.5,7.5,7.5h3.5v22.5     c0,4.142,3.357,7.5,7.5,7.5h4.961l5.261,24.1c0.752,3.444,3.802,5.9,7.327,5.9h86.902c3.525,0,6.575-2.456,7.327-5.9l5.261-24.1     H317c4.143,0,7.5-3.358,7.5-7.5V452h3.5c4.143,0,7.5-3.358,7.5-7.5v-30c0-4.142-3.357-7.5-7.5-7.5h-3.5v-22.5     c0-4.142-3.357-7.5-7.5-7.5h-0.391c5.025-13.3,12.251-30.114,21.87-47.035c5.911-8.019,11.774-15.986,17.66-23.983l4.809-6.534     c23.634-26.233,36.643-60.174,36.643-95.619C397.59,186.244,394.474,169.093,388.328,152.853z M293.412,497h-74.824l-3.274-15     h81.373L293.412,497z M309.5,467h-107v-15h107V467z M320.5,422v15h-129v-15h32.333c4.143,0,7.5-3.358,7.5-7.5     c0-4.142-3.357-7.5-7.5-7.5H202.5v-15c0.001,0,0.016,0,0.039,0c0.188,0,1.02,0.001,1.831,0.001c-0.807,0-1.636-0.001-1.829-0.001     h106.917c-0.186,0-0.967,0.001-1.749,0.001c0.785,0,1.57-0.001,1.751-0.001h0.039v15H256c-4.143,0-7.5,3.358-7.5,7.5     c0,4.142,3.357,7.5,7.5,7.5H320.5z" id="svg_8"/>
			<path d="M307.71,392.001c-0.785,0-1.57,0.001-1.751,0.001C306.136,392.002,306.922,392.001,307.71,392.001z" id="svg_9"/>
		</g>
	</g>
</g><g id="svg_10">
	<g id="svg_11">
		<path d="M256,0c-4.143,0-7.5,3.358-7.5,7.5v34.31c0,4.142,3.357,7.5,7.5,7.5s7.5-3.358,7.5-7.5V7.5C263.5,3.358,260.143,0,256,0z" id="svg_12"/>
	</g>
</g><g id="svg_13">
	<g id="svg_14">
		<path d="M177.15,60.937l-17.155-29.713c-2.072-3.588-6.659-4.816-10.245-2.745c-3.587,2.071-4.816,6.658-2.745,10.245    l17.155,29.713c1.39,2.406,3.91,3.751,6.502,3.751c1.272,0,2.563-0.324,3.743-1.006C177.992,69.111,179.221,64.524,177.15,60.937z    " id="svg_15"/>
	</g>
</g><g id="svg_16">
	<g id="svg_17">
		<path d="M111.928,120.559l-29.713-17.155c-3.586-2.072-8.176-0.843-10.245,2.745c-2.072,3.587-0.842,8.174,2.745,10.245    l29.713,17.155c1.181,0.682,2.471,1.006,3.743,1.006c2.592,0,5.113-1.345,6.502-3.751    C116.744,127.217,115.515,122.63,111.928,120.559z" id="svg_18"/>
	</g>
</g><g id="svg_19">
	<g id="svg_20">
		<path d="M437.285,308.404l-29.713-17.155c-3.59-2.072-8.175-0.842-10.245,2.745c-2.071,3.587-0.842,8.174,2.745,10.245    l29.713,17.155c1.182,0.682,2.471,1.006,3.743,1.006c2.592,0,5.113-1.346,6.502-3.751    C442.102,315.062,440.872,310.475,437.285,308.404z" id="svg_21"/>
	</g>
</g><g id="svg_22">
	<g id="svg_23">
		<path d="M85.31,204.7H51c-4.143,0-7.5,3.358-7.5,7.5c0,4.142,3.357,7.5,7.5,7.5h34.31c4.142,0,7.5-3.358,7.5-7.5    C92.81,208.058,89.453,204.7,85.31,204.7z" id="svg_24"/>
	</g>
</g><g id="svg_25">
	<g id="svg_26">
		<path d="M461,204.7h-34.31c-4.143,0-7.5,3.358-7.5,7.5c0,4.142,3.357,7.5,7.5,7.5H461c4.143,0,7.5-3.358,7.5-7.5    C468.5,208.058,465.143,204.7,461,204.7z" id="svg_27"/>
	</g>
</g><g id="svg_28">
	<g id="svg_29">
		<path d="M114.673,293.56c-2.07-3.587-6.659-4.816-10.245-2.745L74.715,307.97c-3.587,2.071-4.816,6.658-2.745,10.245    c1.389,2.406,3.91,3.751,6.502,3.751c1.272,0,2.563-0.324,3.743-1.006l29.713-17.155    C115.515,301.734,116.744,297.147,114.673,293.56z" id="svg_30"/>
	</g>
</g><g id="svg_31" class="">
	<g id="svg_32">
		<path d="M440.03,105.716c-2.07-3.588-6.66-4.817-10.245-2.745l-29.713,17.155c-3.587,2.071-4.816,6.658-2.745,10.245    c1.389,2.405,3.91,3.751,6.502,3.751c1.272,0,2.563-0.324,3.743-1.006l29.713-17.155    C440.872,113.89,442.101,109.303,440.03,105.716z" id="svg_33"/>
	</g>
</g><g class="" id="svg_79" transform="rotate(81.37715148925781 377.53344726562506,141.78363037109372) ">
	<g id="svg_81">
		<path d="M394.97538610991063,136.91230061518007 c-1.690972128110995,-1.417873738319689 -5.440519020878856,-1.9035389625100163 -8.369086692027608,-1.0847445406041094 l-24.272393643749766,6.7791594149593815 c-2.9302014606445126,0.8183992508528637 -3.9341651057886735,2.6310488711629 -2.2423760829297987,4.048527438429545 c1.1346668048049147,0.9503863825693565 3.1940584642096583,1.4822866199657616 5.311449650713861,1.4822866199657616 c1.0390901193029884,0 2.0937012388156915,-0.12803542118605893 3.0576370413137473,-0.3975420793616522 l24.272393643749766,-6.7791594149593815 C395.66321148762535,140.14242880275674 396.6671751327695,138.3297791824467 394.97538610991063,136.91230061518007 z" id="svg_33"/>
	</g>
</g><g class="" id="svg_75" transform="rotate(93.81840515136719 374.1677856445313,142.5251617431641) ">
	<g id="svg_77">
		<path d="M393.54093889251976,130.55093127086926 c-1.8782036501169204,-3.4852753754408634 -6.042916091680527,-4.6790890422237 -9.29574705094099,-2.6664105088030015 l-26.95993480962515,16.663851467583058 c-3.254645648777485,2.011707163472137 -4.369772356986999,6.467381117526552 -2.4906613621115685,9.951685123018851 c1.260301869571209,2.336144726291883 3.5477180057764053,3.643608677056488 5.899555619835853,3.643608677056488 c1.15414253282547,0 2.3255246160626415,-0.31472386333412855 3.3961914311051373,-0.9771981682534838 l26.95993480962515,-16.663851467583058 C394.3049231791857,138.49090923041598 395.4200498873952,134.03523527636156 393.54093889251976,130.55093127086926 z" id="svg_33"/>
	</g>
</g><g id="svg_34">
	<g id="svg_35">
		<path d="M362.25,27.728c-3.589-2.072-8.175-0.843-10.245,2.745L334.85,60.186c-2.072,3.586-0.842,8.174,2.745,10.245    c1.182,0.682,2.471,1.006,3.743,1.006c2.592,0,5.113-1.345,6.502-3.751l17.155-29.713    C367.066,34.386,365.837,29.799,362.25,27.728z" id="svg_36"/>
	</g>
</g><g id="svg_37">
	<g id="svg_38">
		<path d="M221.719,236.82l-34.799-28.17l34.799-28.171c3.219-2.606,3.717-7.329,1.11-10.548c-2.606-3.22-7.328-3.717-10.548-1.11    l-42,34c-1.759,1.424-2.781,3.566-2.781,5.829s1.022,4.405,2.781,5.829l42,34c1.389,1.125,3.057,1.671,4.714,1.671    c2.186,0,4.353-0.951,5.834-2.782C225.435,244.149,224.938,239.426,221.719,236.82z" id="svg_39"/>
	</g>
</g><g id="svg_40">
	<g id="svg_41">
		<path d="M341.719,202.822l-42-34c-3.22-2.607-7.942-2.109-10.548,1.11s-2.109,7.942,1.11,10.548l34.799,28.171l-34.799,28.171    c-3.219,2.605-3.717,7.327-1.11,10.547c1.482,1.831,3.648,2.782,5.834,2.782c1.657,0,3.325-0.547,4.714-1.671l42-34    c1.759-1.424,2.781-3.566,2.781-5.829S343.478,204.246,341.719,202.822z" id="svg_42"/>
	</g>
</g><g id="svg_43">
	<g id="svg_44">
		<path d="M281.894,146.731c-3.82-1.597-8.215,0.204-9.813,4.025l-46,110c-1.599,3.821,0.204,8.215,4.025,9.813    c0.945,0.396,1.926,0.583,2.891,0.583c2.934,0,5.72-1.732,6.922-4.608l46-110C287.518,152.723,285.715,148.329,281.894,146.731z" id="svg_45"/>
	</g>
</g><g id="svg_46">
</g><g id="svg_47">
</g><g id="svg_48">
</g><g id="svg_49">
</g><g id="svg_50">
</g><g id="svg_51">
</g><g id="svg_52">
</g><g id="svg_53">
</g><g id="svg_54">
</g><g id="svg_55">
</g><g id="svg_56">
</g><g id="svg_57">
</g><g id="svg_58">
</g><g id="svg_59">
</g><g id="svg_60">
</g><rect fill="#4a90d6" stroke="#222222" stroke-width="2" stroke-linejoin="round" stroke-dashoffset="" fill-rule="nonzero" id="svg_61" x="215" y="411" width="49" height="7" style="color: rgb(0, 0, 0);"/><rect fill="#000000" stroke="#000000" stroke-width="2" stroke-linejoin="round" stroke-dashoffset="" fill-rule="nonzero" id="svg_63" x="231" y="413" width="31" height="3" style="color: rgb(0, 0, 0);"/><rect fill="#000000" stroke="#000000" stroke-width="2" stroke-linejoin="round" stroke-dashoffset="" fill-rule="nonzero" id="svg_65" x="204" y="408.0152587890625" width="69" height="12.984732627868652" style="color: rgb(0, 0, 0);" class=""/><polyline fill="none" stroke="#000000" stroke-width="2" stroke-linejoin="round" stroke-dashoffset="" fill-rule="nonzero" marker-start="" marker-mid="" marker-end="" id="svg_68" points="177.55114576176243,327.29159941661356 177.70381751304183,327.29159941661356 177.85648926432125,327.29159941661356 177.85648926432125,327.7496146704518 178.4671762694389,328.3603016755695 179.07786327455656,329.1236604319666 179.68855027967425,329.88701918836364 180.29923728479193,330.6503779447607 180.90992428990955,331.5664084524372 181.5206112950272,332.3297672088343 182.1312983001449,333.09312596523137 182.58931355398317,333.5511412190696 182.74198530526255,334.00915647290793 183.2000005591008,334.3144999754667 183.35267231038023,334.61984347802553 183.35267231038023,334.77251522930493 183.35267231038023,334.77251522930493 183.65801581293906,335.0778587318638 183.65801581293906,335.2305304831432 183.96335931549788,335.6885457369814 183.96335931549788,336.1465609908197 184.42137456933614,336.75724799593735 184.57404632061557,337.367935001055 185.0320615744538,338.1312937574521 185.1847333257332,338.89465251384917 185.64274857957145,339.5053395189668 185.79542033085087,340.11602652408453 186.1007638334097,340.57404177792273 186.25343558468913,341.032057031761 186.40610733596853,341.64274403687864 186.71145083852738,342.1007592907169 186.8641225898068,342.5587745445552 187.01679434108624,343.0167897983934 187.01679434108624,343.47480505223166 187.47480959492444,343.9328203060699 187.62748134620387,344.5435073111875 187.9328248487627,345.1541943163052 188.23816835132152,346.07022482398173 188.54351185388037,346.83358358037884 188.69618360515977,347.5969423367759 188.8488553564392,348.36030109317295 189.30687061027743,349.27633160084946 189.45954236155686,350.19236210852597 189.76488586411568,350.955720864923 189.76488586411568,351.7190796213202 190.0702293666745,352.4824383777172 190.0702293666745,352.94045363155544 190.0702293666745,353.2457971341143 190.0702293666745,353.39846888539364 190.0702293666745,353.5511406366731 190.37557286923334,353.5511406366731 " style="color: rgb(0, 0, 0);"/><polyline fill="none" stroke="#000000" stroke-width="2" stroke-linejoin="round" stroke-dashoffset="" fill-rule="nonzero" marker-start="" marker-mid="" marker-end="" id="svg_69" points="178.61984802071834,324.3908361423047 180.90992428990955,328.3603016755695 181.5206112950272,329.42900393452544 182.58931355398317,331.7190802037166 183.96335931549788,333.8564847216285 185.1847333257332,336.1465609908197 186.40610733596853,338.4366372600109 187.62748134620387,340.7267135292022 188.69618360515977,343.1694615496728 189.45954236155686,345.7648813214229 190.37557286923334,348.36030109317295 191.13893162563045,350.49770561108477 191.7496186307481,352.94045363155544 191.9022903820275,355.07785814946726 192.36030563586576,356.6045756622614 192.51297738714516,357.97862142377613 192.818320889704,358.89465193145264 192.818320889704,359.1999954340115 " style="color: rgb(0, 0, 0);"/><polyline fill="none" stroke="#000000" stroke-width="2" stroke-linejoin="round" stroke-dashoffset="" fill-rule="nonzero" marker-start="" marker-mid="" marker-end="" id="svg_70" points="181.5206112950272,324.3908361423047 182.58931355398317,328.81831692940773 183.96335931549788,331.87175195499606 185.0320615744538,334.1618282241873 186.71145083852738,337.367935001055 187.9328248487627,340.57404177792273 189.30687061027743,343.9328203060699 190.6809163717922,346.98625533165824 191.7496186307481,349.8870186059671 192.818320889704,352.1770948751584 193.4290078948217,353.7038123879525 193.7343513973805,354.4671711443496 193.7343513973805,354.619842895629 " style="color: rgb(0, 0, 0);"/><path fill="none" fill-opacity="1" stroke="#000000" stroke-opacity="1" stroke-width="2" stroke-dasharray="none" stroke-linejoin="round" stroke-linecap="butt" stroke-dashoffset="" fill-rule="nonzero" opacity="1" marker-start="" marker-mid="" marker-end="" d="M174.03969557018766,328.81831657123473 L187.4748100285742,355.23052968817285 " id="svg_71" class=""/><path fill="" fill-opacity="1" stroke="#000000" stroke-opacity="1" stroke-width="1" stroke-dasharray="none" stroke-linejoin="miter" stroke-linecap="butt" stroke-dashoffset="" fill-rule="nonzero" opacity="1" marker-start="" marker-mid="" marker-end="" d="M184.6838151105879,320.7572456949941 L199.87175586145963,349.91755257377304 " id="svg_62" class=""/><polyline fill="none" stroke="#000000" stroke-dashoffset="" fill-rule="nonzero" marker-start="" marker-mid="" marker-end="" id="svg_67" points="181.09313039144484,329.00152303094296 181.09313039144484,329.1541947822224 181.09313039144484,329.3068665335018 180.94045864016542,329.9175535386195 180.94045864016542,330.833584046296 180.787786888886,331.59694280269315 180.787786888886,332.20762980781075 180.787786888886,332.665645061649 180.787786888886,332.97098856420774 181.09313039144484,332.97098856420774 181.09313039144484,333.1236603154872 181.24580214272424,333.1236603154872 181.24580214272424,332.8183168129284 181.24580214272424,332.665645061649 181.24580214272424,332.20762980781075 181.24580214272424,332.0549580565313 181.09313039144484,331.9022863052519 180.94045864016542,331.9022863052519 180.787786888886,331.9022863052519 180.787786888886,332.36030155909015 180.32977163504773,332.97098856420774 180.32977163504773,333.58167556932545 180.32977163504773,334.1923625744431 180.32977163504773,334.65037782828136 180.6351151376066,334.9557213308402 181.09313039144484,335.1083930821196 181.24580214272424,335.1083930821196 181.39847389400364,335.1083930821196 181.39847389400364,334.34503432572257 181.39847389400364,333.2763320667666 180.94045864016542,332.51297331036955 180.787786888886,332.0549580565313 180.48244338632716,332.20762980781075 180.32977163504773,332.665645061649 180.17709988376834,333.2763320667666 180.17709988376834,333.7343473206049 180.17709988376834,334.0396908231637 180.48244338632716,334.1923625744431 180.6351151376066,334.1923625744431 180.787786888886,334.1923625744431 180.787786888886,334.1923625744431 181.09313039144484,333.7343473206049 181.09313039144484,333.1236603154872 180.787786888886,332.20762980781075 180.48244338632716,332.0549580565313 180.32977163504773,332.0549580565313 180.32977163504773,332.36030155909015 " style="color: rgb(0, 0, 0);"/><rect fill="#000000" stroke="#000000" stroke-dashoffset="" fill-rule="nonzero" id="svg_64" x="180.67938232421875" y="326.5419921875" width="8" height="26" style="color: rgb(0, 0, 0);" class="" transform="rotate(-25.74576759338379 184.67939758300795,339.5419921875) "/><rect fill="" stroke-dashoffset="" fill-rule="nonzero" id="svg_66" x="182.96946716308594" y="324.9847412109375" width="9.702290534973145" height="26" style="color: rgb(0, 0, 0);" class="" transform="rotate(-26.982261657714844 187.82061767578142,337.9847106933595) "/><rect fill="" stroke-dashoffset="" fill-rule="nonzero" id="svg_73" x="198" y="337" width="0" height="0" style="color: rgb(0, 0, 0);"/><g class="" id="svg_72" fill="#000000" fill-opacity="1" transform="rotate(79.41952514648438 378.0678405761718,143.23391723632815) ">
	<g id="svg_76" fill="#000000" fill-opacity="1">
		<path d="M401.11901410439043,136.1775037978117 c-2.2347836066899958,-2.0538766984970325 -7.190173343263457,-2.7573924349666132 -11.060559444704822,-1.5713187116427965 l-32.07832140366173,9.820026411013542 c-3.8725453126555607,1.1855012939206675 -5.199380603777299,3.8112349661631106 -2.96351739148021,5.864539235256993 c1.4995721882571984,1.3766927145722863 4.221257923747766,2.147182691210248 7.019595657342193,2.147182691210248 c1.3732583322268948,0 2.7670291709886246,-0.18546712662013565 4.040963787362632,-0.5758639795674512 l32.07832140366173,-9.820026411013542 C402.0280420255658,140.856541739148 403.3548773166876,138.23080806690558 401.11901410439043,136.1775037978117 z" id="svg_33" fill="#000000" fill-opacity="1"/>
	</g>
</g></g></svg>